<svg version="1" xmlns="http://www.w3.org/2000/svg" width="272" height="272" viewBox="0 0 204.000000 204.000000"><path d="M85.6 1.5c-16.5 3.4-31 14.1-39.9 29.3-7.7 13.3-10.3 31.4-9.4 66 .7 29 3.9 47.6 10.8 63.1 1.6 3.5 2.7 7.2 2.4 8.1-.3.9.3 2.5 1.5 3.5 1.1 1 3.3 4.2 5 7.2 4 7.1 13.4 16.2 20.1 19.5 9.5 4.6 17.1 6.1 29.4 5.5 12.8-.5 19.4-2.6 29.5-9.3 4.8-3.2 6.9-5.3 7.8-7.8.7-1.9 2.6-4.6 4.2-5.9 3.4-2.9 6.9-9.5 10.3-19.7 2.2-6.7 3.2-11 6.7-28.2.5-2.6.7-5.4.4-6.2-.3-.7.3-4 1.3-7.2 1.5-5 1.8-9.7 1.8-31.4 0-33.8-1.6-43.3-9.7-57.3-6.3-10.8-15.7-19.6-27.3-25.3L120.7.6 106.6.3c-9.4-.1-16.4.2-21 1.2z"/></svg>